<svg height="512" viewBox="0 0 192 192" width="512" xmlns="http://www.w3.org/2000/svg"><g id="_13-search" data-name="13-search"><path d="m189.657 178.343-61.437-61.437a72.116 72.116 0 1 0 -11.314 11.314l61.437 61.437zm-173.657-106.343a56 56 0 1 1 96 39.138v-15.138a24.028 24.028 0 0 0 -24-24h-32a24.028 24.028 0 0 0 -24 24v15.138a55.806 55.806 0 0 1 -16-39.138zm32 50.586v-26.586a8.009 8.009 0 0 1 8-8h32a8.009 8.009 0 0 1 8 8v26.586a55.9 55.9 0 0 1 -48 0z"/><path d="m96 48a24 24 0 1 0 -24 24 24.027 24.027 0 0 0 24-24zm-24 8a8 8 0 1 1 8-8 8.009 8.009 0 0 1 -8 8z"/></g></svg>